<?xml version="1.0" standalone="no"?>
<!DOCTYPE svg PUBLIC "-//W3C//DTD SVG 1.1//EN" "http://www.w3.org/Graphics/SVG/1.1/DTD/svg11.dtd">
<svg class="icon" style="width: 1em;height: 1em;vertical-align: middle;fill: currentColor;overflow: hidden;" viewBox="0 0 1024 1024" version="1.1" xmlns="http://www.w3.org/2000/svg"><path d="M448 640a64 64 0 0 1 64-64c85.546667 0 157.013333 19.2 228.693333 70.613333 50.218667 36.053333 99.2 87.04 153.514667 154.154667C835.584 536.746667 675.328 405.333333 512 405.333333A64 64 0 0 1 448 341.333333V208.213333l-274.261333 301.653334L448 784.213333V640z m128 4.821333A393.813333 393.813333 0 0 0 512 640v195.712c0 37.973333-45.952 57.002667-72.832 30.122667l-325.077333-325.077334a42.666667 42.666667 0 0 1-1.408-58.88l325.12-357.546666C463.957333 95.488 512 113.92 512 152.96V341.333333c228.181333 0 422.442667 203.349333 461.994667 549.674667 4.693333 41.258667-46.250667 58.538667-71.125334 25.301333-134.613333-179.626667-215.381333-253.184-326.869333-271.488z" fill="#000000" /></svg>