<?xml version="1.0" standalone="no"?>
<!DOCTYPE svg PUBLIC "-//W3C//DTD SVG 1.1//EN" "http://www.w3.org/Graphics/SVG/1.1/DTD/svg11.dtd">
<svg class="icon" style="width: 1.521484375em;height: 1em;vertical-align: middle;fill: currentColor;overflow: hidden;" viewBox="0 0 1558 1024" version="1.1" xmlns="http://www.w3.org/2000/svg"><path d="M4.061386 381.770294m263.990097 0l852.891082 0q263.990097 0 263.990097 263.990097l0 0q0 263.990097-263.990097 263.990097l-852.891082 0q-263.990097 0-263.990097-263.990097l0 0q0-263.990097 263.990097-263.990097Z" fill="#FFEBEE" /><path d="M377.708908 117.780197v50.767326c0 41.495182 33.640461 75.135643 75.135643 75.135643S527.980194 210.042705 527.980194 168.547523V117.780197h199.007919v50.767326c0 41.495182 33.640461 75.135643 75.135643 75.135643S877.259399 210.042705 877.259399 168.547523V117.780197h64.982178c53.833673 0 97.473267 43.639594 97.473266 97.473267v597.023757c0 53.833673-43.639594 97.473267-97.473266 97.473267H312.72673c-53.833673 0-97.473267-43.639594-97.473266-97.473267V215.253464c0-53.833673 43.639594-97.473267 97.473266-97.473267h64.982178z" fill="#FFC0CA" /><path d="M398.015838 75.135643C398.015838 47.095833 420.743355 24.368317 448.783165 24.368317S499.550491 47.095833 499.550491 75.135643v97.473266c0 28.03981-22.727517 50.767326-50.767326 50.767327S398.015838 200.648719 398.015838 172.608909v-97.473266zM755.417816 75.135643c0-28.03981 22.727517-50.767326 50.767326-50.767326S856.952468 47.095833 856.952468 75.135643v97.473266c0 28.03981-22.727517 50.767326-50.767326 50.767327S755.417816 200.648719 755.417816 172.608909v-97.473266z" fill="#FFC0CA" /><path d="M458.93663 75.135643c0-28.03981 22.727517-50.767326 50.767326-50.767326S560.471283 47.095833 560.471283 75.135643v97.473266c0 28.03981-22.727517 50.767326-50.767327 50.767327S458.93663 200.648719 458.93663 172.608909v-97.473266zM816.338607 75.135643c0-28.03981 22.727517-50.767326 50.767327-50.767326S917.87326 47.095833 917.87326 75.135643v97.473266c0 28.03981-22.727517 50.767326-50.767326 50.767327S816.338607 200.648719 816.338607 172.608909v-97.473266z" fill="#FF6A81" /><path d="M434.568313 117.780197v50.767326c0 41.495182 33.640461 75.135643 75.135643 75.135643S584.839599 210.042705 584.839599 168.547523V117.780197h199.007919v50.767326c0 41.495182 33.640461 75.135643 75.135643 75.135643S934.118804 210.042705 934.118804 168.547523V117.780197h64.982178c53.833673 0 97.473267 43.639594 97.473267 97.473267v597.023757c0 53.833673-43.639594 97.473267-97.473267 97.473267H369.586136c-53.833673 0-97.473267-43.639594-97.473267-97.473267V215.253464c0-53.833673 43.639594-97.473267 97.473267-97.473267h64.982177z" fill="#FF6A81" /><path d="M426.445541 430.506927a24.368317 24.368317 0 0 1 24.368317-24.368316h467.059402a24.368317 24.368317 0 1 1 0 48.736633H450.813858a24.368317 24.368317 0 0 1-24.368317-24.368317zM430.506927 584.839599a24.368317 24.368317 0 0 1 24.368317-24.368316h255.867325a24.368317 24.368317 0 1 1 0 48.736633h-255.867325a24.368317 24.368317 0 0 1-24.368317-24.368317z" fill="#FFC0CA" /><path d="M1177.801971 668.975274c0 111.51754-88.229552 200.128862-199.259725 200.128862-21.350707 0-64.048059 1.78701-169.014583-21.440058 19.57182-3.57402 61.631534-6.400745 51.595849-13.500047C809.470803 797.619679 775.724746 737.255297 775.724746 668.975274 775.724746 557.461796 865.733185 467.059402 976.763358 467.059402s201.038612 90.402393 201.038613 201.915872z" fill="#000000" opacity=".1" /><path d="M1206.231673 664.913888c0 111.51754-88.229552 200.128862-199.259725 200.128861-21.350707 0-64.048059 1.78701-169.014582-21.440057 19.57182-3.57402 61.631534-6.400745 51.595849-13.500047C837.900506 793.558293 804.154449 733.193911 804.154449 664.913888 804.154449 553.400409 894.162888 462.998016 1005.193061 462.998016s201.038612 90.402393 201.038612 201.915872z" fill="#FFFFFF" /><path d="M1007.223754 548.287124c-67.293106 0-121.841583 54.548477-121.841583 121.841583 0 67.293106 54.548477 121.841583 121.841583 121.841584 67.293106 0 121.841583-54.548477 121.841583-121.841584 0-67.293106-54.552538-121.841583-121.841583-121.841583z m61.018265 125.927338c-9.14218 6.689103-25.594855 18.954489-31.544786 24.904419-5.909317 5.909317-18.032554 22.154861-24.754148 31.337656-2.327174 3.180065-7.070873 3.151636-9.308697-0.052798-6.559139-9.389925-18.515859-26.130958-24.473913-32.084951-5.795598-5.795598-22.102063-17.350241-31.305164-23.718494a5.722493 5.722493 0 0 1-0.158394-9.264022c9.032523-6.847497 25.119673-19.255032 31.037113-25.176533 5.958053-5.953992 18.475245-22.187352 25.298374-31.191445a5.722493 5.722493 0 0 1 9.190917 0.048737c6.376376 8.776655 17.886344 24.29115 23.58853 29.993336 6.112386 6.112386 23.198637 19.056024 32.519519 25.992871 3.074469 2.290622 3.033855 6.924663-0.089351 9.211224z" fill="#FF6A81" /></svg>